<?xml version="1.0" encoding="UTF-8" standalone="no"?>
<!-- Created with Inkscape (http://www.inkscape.org/) -->

<svg
   xmlns:dc="http://purl.org/dc/elements/1.1/"
   xmlns:cc="http://creativecommons.org/ns#"
   xmlns:rdf="http://www.w3.org/1999/02/22-rdf-syntax-ns#"
   xmlns:svg="http://www.w3.org/2000/svg"
   xmlns="http://www.w3.org/2000/svg"
   xmlns:sodipodi="http://sodipodi.sourceforge.net/DTD/sodipodi-0.dtd"
   xmlns:inkscape="http://www.inkscape.org/namespaces/inkscape"
   width="96"
   height="96"
   viewBox="0 0 96 96"
   id="svg2"
   version="1.1"
   inkscape:version="0.91 r13725"
   sodipodi:docname="ico.svg"
   inkscape:export-filename="/home/bitetti/.godot/plugins/grass_editor/ico.png"
   inkscape:export-xdpi="90"
   inkscape:export-ydpi="90">
  <defs
     id="defs4">
    <clipPath
       clipPathUnits="userSpaceOnUse"
       id="clipPath3350">
      <path
         d="m 0,67.75 189.02,0 L 189.02,0 0,0 0,67.75 Z"
         id="path3352"
         inkscape:connector-curvature="0" />
    </clipPath>
  </defs>
  <sodipodi:namedview
     id="base"
     pagecolor="#ffffff"
     bordercolor="#b83e50"
     borderopacity="0.49019608"
     inkscape:pageopacity="0"
     inkscape:pageshadow="2"
     inkscape:zoom="1.7677669"
     inkscape:cx="31.515008"
     inkscape:cy="43.902668"
     inkscape:document-units="px"
     inkscape:current-layer="layer1"
     showgrid="false"
     units="px"
     inkscape:showpageshadow="false"
     borderlayer="true"
     showguides="true"
     inkscape:guide-bbox="true"
     inkscape:window-width="1680"
     inkscape:window-height="1026"
     inkscape:window-x="0"
     inkscape:window-y="24"
     inkscape:window-maximized="1">
    <sodipodi:guide
       position="5.6,0.05"
       orientation="0,1"
       id="guide4140" />
    <sodipodi:guide
       position="3.8,47.1"
       orientation="1,0"
       id="guide4435" />
  </sodipodi:namedview>
  <metadata
     id="metadata7">
    <rdf:RDF>
      <cc:Work
         rdf:about="">
        <dc:format>image/svg+xml</dc:format>
        <dc:type
           rdf:resource="http://purl.org/dc/dcmitype/StillImage" />
        <dc:title></dc:title>
      </cc:Work>
    </rdf:RDF>
  </metadata>
  <g
     inkscape:label="Camada 1"
     inkscape:groupmode="layer"
     id="layer1"
     transform="translate(0,-956.3622)">
    <g
       id="g4459"
       transform="translate(0.28465514,-1.12018)">
      <path
         sodipodi:nodetypes="cscccccccccscccccccccccccscscccccssccccscccccscccccccscccccsccccssccccsscsccsccscsccsccscccccccccsccsccccsccccssccccssccccsscccccccccccccccsccccssccccsccccscc"
         inkscape:connector-curvature="0"
         id="path4428"
         d="m 16.447266,969.75283 c 0,0 -1.843897,2.94309 -2.544922,4.52539 -1.177281,2.65725 -2.757813,8.27148 -2.757813,8.27148 -2.228847,-1.32196 -1.80809,-4.05704 -2.191406,-6.36328 l -1.0136719,-0.11719 c 0.255976,2.87135 0.7875412,5.5947 2.7578129,7.54297 l -0.683594,6.2207 c -0.1527724,1.78815 -0.346112,3.3263 -1.060547,4.31446 -2.251591,-0.86616 -1.7598324,-3.42054 -2.4746094,-5.23243 l -0.9199218,0.84766 c 0.987254,1.87622 1.2967671,3.94609 3.1113281,5.58594 0,0 -0.1556682,1.88562 -0.1425781,2.83008 0.025228,1.8198 0.4257812,5.44339 0.4257812,5.44339 l 0.3535156,3.3242 c 0,0 -1.3019771,-0.7684 -1.7675781,-1.3438 -0.835636,-1.0325 -1.6972656,-3.6054 -1.6972656,-3.6054 l -0.7070313,-0.1426 c 0,0 1.0918393,3.0871 2.0507813,4.3848 0.52409,0.7092 2.1113281,1.5253 2.1113281,1.5253 0,0 0.4684881,2.4819 0.787109,3.6368 0.515691,1.8691 2.050782,5.4433 2.050782,5.4433 l 0.01953,0.043 c 0,0 -1.313912,-0.5773 -1.857422,-1.0313 -0.7715803,-0.6444 -1.9101562,-2.3339 -1.9101562,-2.3339 l -0.4941407,0.4238 c -10e-7,0 1.2882545,1.8197 2.1210939,2.5449 0.799884,0.6965 2.701172,2.0313 2.701172,2.0313 0,0 1.030909,2.1324 1.611328,3.3437 1.234252,2.5758 3.057626,6.1621 4.333984,8.3399 1.369441,2.3365 2.904054,3.3666 5.371094,3.957 2.590744,0.2292 7.800782,0.1992 7.800782,0.1992 0,0 3.021215,-0.5449 5.44961,-0.5008 2.84297,-0.5465 1.262724,2.1202 2.450781,2.4012 0,0 -0.707818,-0.1395 -4.150391,1.6992 -3.097856,1.6546 -3.120448,4.5202 -4.951172,4.8008 -2.106622,0.3229 -2.988696,-2.1881 -5.199218,-1.6504 -3.191942,0.7765 -0.5,6.75 -0.5,6.75 0,0 -1.089523,-4.6427 1.199218,-4.9004 2.542208,-0.2862 2.742236,3.1064 5.201172,2.4004 2.369916,-0.6804 1.96567,-3.1707 5.59961,-5.0508 4.0948,-2.1185 6.65039,-0.5996 6.65039,-0.5996 0,0 -0.05429,4.1099 -2.300781,4.4004 -1.474329,0.1907 -2.974811,-1.9401 -4.449219,-1.75 -3.213993,0.4143 -1.451172,7.1992 -1.451172,7.1992 0,0 0.272369,-4.8109 2.851563,-4.6992 1.109015,0.048 2.046509,2.3151 3.148437,2.4492 1.450278,0.1765 1.768062,-0.6639 3,-1.4492 1.561938,-0.9957 2.351563,-3.6992 2.351563,-3.6992 l 0.59676,4.1561 c 0.122897,1.2127 0.245898,0.652 0.200307,2.5457 0.215092,-1.9064 0.249889,-1.3505 0.254771,-2.5457 l 0.914959,-4.1561 c 0,0 0.789624,2.7035 2.351562,3.6992 1.231938,0.7853 1.549722,1.6257 3,1.4492 1.101928,-0.1341 2.039423,-2.4012 3.148438,-2.4492 2.579194,-0.1117 2.851562,4.6992 2.851562,4.6992 0,0 1.762821,-6.7849 -1.451172,-7.1992 -1.474408,-0.1901 -2.974889,1.9407 -4.449218,1.75 -2.246487,-0.2905 -2.300782,-4.4004 -2.300782,-4.4004 0,0 2.555591,-1.5189 6.650391,0.5996 3.63394,1.8801 3.229693,4.3704 5.599609,5.0508 2.458936,0.706 2.658964,-2.6866 5.201172,-2.4004 2.288741,0.2577 1.199219,4.9004 1.199219,4.9004 0,0 2.691942,-5.9735 -0.5,-6.75 -2.210522,-0.5377 -3.092597,1.9733 -5.199219,1.6504 -1.830724,-0.2806 -1.853316,-3.1462 -4.951172,-4.8008 -3.442573,-1.8387 -4.15039,-1.6992 -4.15039,-1.6992 1.188057,-0.281 -0.592189,-2.0977 3.100781,-2.0512 4.799609,0.1508 4.799609,0.1508 4.799609,0.1508 0,0 5.210039,0.03 7.800782,-0.1992 2.46704,-0.5904 4.001652,-1.6205 5.371093,-3.957 1.276358,-2.1778 3.099733,-5.7641 4.333985,-8.3399 0.580419,-1.2113 1.611328,-3.3437 1.611328,-3.3437 0,0 1.901288,-1.3348 2.701172,-2.0313 0.832839,-0.7252 2.121095,-2.5449 2.121093,-2.5449 l -0.49414,-0.4238 c 0,0 -1.138576,1.6895 -1.910156,2.3339 -0.54351,0.454 -1.857422,1.0313 -1.857422,1.0313 l 0.01953,-0.043 c 0,0 1.53509,-3.5742 2.050781,-5.4433 0.318621,-1.1549 0.78711,-3.6368 0.78711,-3.6368 0,0 1.587238,-0.8161 2.111328,-1.5253 0.958942,-1.2977 2.050781,-4.3848 2.050781,-4.3848 l -0.707031,0.1426 c 0,0 -0.86163,2.5729 -1.697266,3.6054 -0.465601,0.5754 -1.767578,1.3438 -1.767578,1.3438 l 0.353516,-3.3242 c 0,0 0.400553,-3.62357 0.425781,-5.44339 0.01309,-0.94447 -0.142578,-2.83008 -0.142578,-2.83008 1.814561,-1.63985 2.124074,-3.70972 3.111328,-5.58594 l -0.919922,-0.84766 c -0.714777,1.81189 -0.223018,4.36627 -2.474609,5.23243 -0.714435,-0.98816 -0.907775,-2.52631 -1.060547,-4.31446 l -0.683593,-6.2207 c 1.970271,-1.94827 2.501837,-4.67162 2.757813,-7.54297 l -1.013672,0.11719 c -0.383316,2.30624 0.03744,5.04132 -2.191407,6.36328 0,0 -1.580531,-5.61423 -2.757812,-8.27148 -0.701025,-1.5823 -2.544922,-4.52539 -2.544922,-4.52539 l -0.212891,0.70703 c 0,0 1.513098,2.42797 2.050782,3.74609 0.823184,2.01802 2.367187,6.99414 2.367187,6.99414 -1.10625,0.43889 -2.462109,-1.84474 -3.568359,-2.60937 l -0.142578,1.27343 c 1.22622,0.7549 1.928035,2.03421 3.865234,2.07813 0,0 0.612738,2.49911 0.873047,3.86133 0.332502,1.74001 0.353517,5.30273 0.353515,5.30273 -1.630645,-0.39959 -1.699427,-1.31981 -2.546874,-1.98047 l -0.707032,0.99024 c 1.067979,0.63672 1.587272,1.27343 3.253906,1.91015 0,0 0.617133,1.87738 0.763672,2.36328 0.46589,1.54483 0.685219,2.17899 0.791016,3.78907 0.123969,1.88659 -0.423828,5.65629 -0.423828,5.65629 -1.299952,-1.0372 -1.553172,-2.0743 -2.261719,-3.1114 l -0.636719,0.92 2.615235,3.1093 c 0,0 0.147348,1.4651 0.06641,2.1504 -0.169512,1.4351 -0.288503,2.1717 -0.673828,3.5645 -0.264257,0.9551 -1.371094,3.3379 -1.371094,3.3379 -0.762291,-1.1791 -0.288538,-2.3581 -0.425781,-3.5371 l -0.423828,1.1328 c -0.296185,1.1784 -0.0072,2.3567 0.353515,3.5351 0,0 -3.109628,5.2806 -4.666015,7.9199 -1.313184,2.227 -2.795655,5.1149 -3.941406,6.6797 -0.725725,0.9912 -1.993933,1.8371 -2.935547,2.127 -2.561316,0.7886 -5.517541,0.209 -8,-0.8008 -2.724519,-1.1082 -6.900395,-3 -6.900395,-3 -3.560104,-1.573 -2.453565,-6.036 -4.476953,-7.3746 -3.201757,0.8142 -4.835446,0.4539 -7.914478,-0.1 -2.023389,1.3386 -1.616847,5.9016 -5.176953,7.4746 0,0 -4.175876,1.8918 -6.900391,3 -2.482459,1.0098 -5.438684,1.5894 -8,0.8008 -0.941614,-0.2899 -2.209822,-1.1358 -2.935547,-2.127 -1.145751,-1.5648 -2.628222,-4.4527 -3.941406,-6.6797 -1.556387,-2.6393 -4.666016,-7.9199 -4.666016,-7.9199 0.360715,-1.1784 0.649701,-2.3568 0.353516,-3.5351 l -0.423803,-1.1328 c -0.137243,1.1789 0.336509,2.358 -0.425781,3.5371 0,0 -1.106837,-2.3828 -1.371094,-3.3379 -0.385325,-1.3928 -0.504316,-2.1294 -0.6738284,-3.5645 -0.080942,-0.6853 0.066406,-2.1504 0.066406,-2.1504 l 2.615234,-3.1093 -0.636718,-0.92 c -0.708547,1.0371 -0.961767,2.0742 -2.2617216,3.1114 0,0 -0.5477972,-3.7697 -0.4238282,-5.65629 0.105797,-1.61007 0.3251254,-2.24424 0.7910178,-3.78907 0.146539,-0.4859 0.763672,-2.36328 0.763672,-2.36328 1.666634,-0.63672 2.185927,-1.27343 3.253906,-1.91015 l -0.707031,-0.99024 c -0.847447,0.66066 -0.916229,1.58088 -2.546875,1.98047 -1e-6,0 0.02101,-3.56272 0.353516,-5.30273 0.260309,-1.36222 0.873047,-3.86133 0.873047,-3.86133 1.937199,-0.0439 2.639014,-1.32323 3.865234,-2.07813 l -0.142578,-1.27343 c -1.10625,0.76463 -2.46211,3.04826 -3.568359,2.60937 -1e-6,0 1.544003,-4.97612 2.367187,-6.99414 0.537684,-1.31812 2.050781,-3.74609 2.050781,-3.74609 z"
         style="fill:#476c2b;fill-opacity:1;fill-rule:evenodd;stroke:none;stroke-width:1px;stroke-linecap:butt;stroke-linejoin:miter;stroke-opacity:1" />
      <g
         transform="matrix(0.59897982,0,0,0.59897982,76.334817,351.47834)"
         id="g4374">
        <g
           transform="matrix(1.25,0,0,-1.25,-10.206822,1095.2219)"
           id="g3412">
          <path
             inkscape:connector-curvature="0"
             id="path3414"
             style="fill:#478c2b;fill-opacity:1;fill-rule:nonzero;stroke:none"
             d="m 0,0 0,-3.942 c 0,-0.39 -0.25,-0.734 -0.621,-0.852 L -6.835,-6.8 c -0.273,-0.091 -0.57,-0.042 -0.8,0.128 -0.232,0.168 -0.37,0.437 -0.37,0.721 l 0,4.305 -5.818,-1.108 0,-4.381 c 0,-0.447 -0.332,-0.824 -0.775,-0.885 l -8.41,-1.152 c -0.039,-0.003 -0.081,-0.008 -0.121,-0.008 -0.214,0 -0.424,0.078 -0.588,0.22 -0.195,0.172 -0.306,0.416 -0.306,0.676 l 0,4.638 -4.341,-0.018 0,-10e-4 -0.318,10e-4 -0.319,-10e-4 0,10e-4 -4.34,0.018 0,-4.638 c 0,-0.26 -0.112,-0.504 -0.307,-0.676 -0.164,-0.142 -0.374,-0.22 -0.587,-0.22 -0.041,0 -0.082,0.005 -0.123,0.008 l -8.41,1.152 c -0.442,0.061 -0.774,0.438 -0.774,0.885 l 0,4.381 -5.819,1.108 0,-4.305 c 0,-0.284 -0.137,-0.553 -0.368,-0.721 -0.232,-0.17 -0.529,-0.219 -0.802,-0.128 l -6.215,2.006 c -0.369,0.118 -0.619,0.462 -0.619,0.852 l 0,3.942 -3.837,1.29 c -0.19,-0.811 -0.295,-1.642 -0.295,-2.481 0,-10.301 14.512,-18.252 32.448,-18.309 l 0.022,0 0.023,0 c 17.936,0.057 32.448,8.008 32.448,18.309 0,0.766 -0.088,1.521 -0.247,2.266 L 0,0 Z" />
        </g>
        <g
           transform="matrix(1.25,0,0,-1.25,-83.142572,1072.3886)"
           id="g3416">
          <path
             inkscape:connector-curvature="0"
             id="path3418"
             style="fill:#478c2b;fill-opacity:1;fill-rule:nonzero;stroke:none"
             d="m 0,0 0,-16.047 2.163,-0.729 c 0.364,-0.122 0.61,-0.462 0.61,-0.847 l 0,-3.936 4.426,-1.428 0,4.154 c 0,0.27 0.118,0.52 0.323,0.689 0.206,0.172 0.474,0.241 0.739,0.192 l 7.608,-1.452 c 0.422,-0.079 0.728,-0.448 0.728,-0.877 l 0,-4.338 6.62,-0.904 0,4.509 c 0,0.241 0.096,0.467 0.264,0.635 0.167,0.166 0.394,0.259 0.633,0.259 l 0.002,0 5.551,-0.022 5.549,0.022 c 0.245,-10e-4 0.468,-0.093 0.635,-0.259 0.169,-0.168 0.264,-0.394 0.264,-0.635 l 0,-4.509 6.621,0.904 0,4.338 c 0,0.429 0.304,0.798 0.726,0.877 l 7.609,1.452 c 0.262,0.049 0.533,-0.02 0.738,-0.192 0.205,-0.169 0.325,-0.419 0.325,-0.689 l 0,-4.154 4.425,1.428 0,3.936 c 0,0.385 0.245,0.725 0.609,0.847 l 1.475,0.497 0,16.279 0.04,0 c 1.437,1.834 2.767,3.767 4.042,5.828 -1.694,2.883 -3.768,5.459 -5.986,7.846 -2.057,-1.035 -4.055,-2.208 -5.942,-3.456 -0.944,0.938 -2.008,1.706 -3.052,2.509 -1.027,0.824 -2.183,1.428 -3.281,2.132 0.327,2.433 0.489,4.828 0.554,7.327 -2.831,1.424 -5.85,2.369 -8.903,3.047 -1.219,-2.048 -2.334,-4.267 -3.304,-6.436 -1.152,0.192 -2.309,0.264 -3.467,0.277 l 0,0.002 c -0.008,0 -0.015,-0.002 -0.022,-0.002 -0.008,0 -0.015,0.002 -0.022,0.002 l 0,-0.002 c -1.16,-0.013 -2.316,-0.085 -3.468,-0.277 -0.97,2.169 -2.084,4.388 -3.305,6.436 C 19.475,24.555 16.456,23.61 13.626,22.186 13.69,19.687 13.852,17.292 14.18,14.859 13.081,14.155 11.925,13.551 10.898,12.727 9.855,11.924 8.79,11.156 7.846,10.218 5.958,11.466 3.961,12.639 1.904,13.674 -0.314,11.287 -2.388,8.711 -4.082,5.828 -2.807,3.767 -1.477,1.834 -0.04,0 L 0,0 Z" />
        </g>
        <g
           transform="matrix(1.25,0,0,-1.25,-57.043322,1082.015)"
           id="g3420">
          <path
             inkscape:connector-curvature="0"
             id="path3422"
             style="fill:#ffffff;fill-opacity:1;fill-rule:nonzero;stroke:none"
             d="m 0,0 c 0,-3.611 -2.926,-6.537 -6.537,-6.537 -3.608,0 -6.535,2.926 -6.535,6.537 0,3.609 2.927,6.533 6.535,6.533 C -2.926,6.533 0,3.609 0,0" />
        </g>
        <g
           transform="matrix(1.25,0,0,-1.25,-59.009322,1082.4996)"
           id="g3424">
          <path
             inkscape:connector-curvature="0"
             id="path3426"
             style="fill:#9a8c2b;fill-opacity:1;fill-rule:nonzero;stroke:none"
             d="m 0,0 c 0,-2.396 -1.941,-4.337 -4.339,-4.337 -2.396,0 -4.339,1.941 -4.339,4.337 0,2.396 1.943,4.339 4.339,4.339 C -1.941,4.339 0,2.396 0,0" />
        </g>
        <g
           transform="matrix(1.25,0,0,-1.25,-45.994822,1090.9299)"
           id="g3428">
          <path
             inkscape:connector-curvature="0"
             id="path3430"
             style="fill:#ffffff;fill-opacity:1;fill-rule:nonzero;stroke:none"
             d="m 0,0 c -1.162,0 -2.104,0.856 -2.104,1.912 l 0,6.018 c 0,1.054 0.942,1.912 2.104,1.912 1.162,0 2.106,-0.858 2.106,-1.912 l 0,-6.018 C 2.106,0.856 1.162,0 0,0" />
        </g>
        <g
           transform="matrix(1.25,0,0,-1.25,-34.944947,1082.015)"
           id="g3432">
          <path
             inkscape:connector-curvature="0"
             id="path3434"
             style="fill:#ffffff;fill-opacity:1;fill-rule:nonzero;stroke:none"
             d="m 0,0 c 0,-3.611 2.926,-6.537 6.537,-6.537 3.609,0 6.535,2.926 6.535,6.537 0,3.609 -2.926,6.533 -6.535,6.533 C 2.926,6.533 0,3.609 0,0" />
        </g>
        <g
           transform="matrix(1.25,0,0,-1.25,-32.978447,1082.4996)"
           id="g3436">
          <path
             inkscape:connector-curvature="0"
             id="path3438"
             style="fill:#9a8c2b;fill-opacity:1;fill-rule:nonzero;stroke:none"
             d="m 0,0 c 0,-2.396 1.941,-4.337 4.336,-4.337 2.398,0 4.339,1.941 4.339,4.337 0,2.396 -1.941,4.339 -4.339,4.339 C 1.941,4.339 0,2.396 0,0" />
        </g>
      </g>
      <path
         sodipodi:nodetypes="zscsz"
         inkscape:connector-curvature="0"
         id="path4394"
         d="m 80.516029,970.99317 c -0.890095,1.36636 -3.699452,2.4465 -6.997215,0.15929 -2.720112,-1.88659 -6.036397,-9.55973 -7.884863,-9.7491 0,0 8.612328,0.93123 11.56244,3.21919 3.331494,2.58373 4.20978,5.00421 3.319638,6.37062 z"
         style="fill:#478c2b;fill-opacity:1;fill-rule:evenodd;stroke:none;stroke-width:1px;stroke-linecap:butt;stroke-linejoin:miter;stroke-opacity:1" />
      <path
         style="fill:#478c2b;fill-opacity:1;fill-rule:evenodd;stroke:none;stroke-width:1px;stroke-linecap:butt;stroke-linejoin:miter;stroke-opacity:1"
         d="m 87.585198,980.05468 c -1.629714,0.057 -4.128349,-1.62113 -4.152161,-5.63435 -0.01963,-3.31027 4.353288,-10.43434 3.445803,-12.05581 0,0 4.188099,7.58283 4.011478,11.312 -0.199446,4.21126 -1.67534,6.3212 -3.30512,6.37816 z"
         id="path4398"
         inkscape:connector-curvature="0"
         sodipodi:nodetypes="zscsz" />
      <path
         sodipodi:nodetypes="zscsz"
         inkscape:connector-curvature="0"
         id="path4400"
         d="m 81.466354,980.96445 c 0.882112,-1.3716 0.716878,-4.37697 -2.72033,-6.4487 -2.835054,-1.70892 -11.193387,-1.59181 -12.123183,-3.20058 0,0 4.376707,7.47558 7.672222,9.22988 3.721477,1.9811 6.289319,1.791 7.171291,0.4194 z"
         style="fill:#478c2b;fill-opacity:1;fill-rule:evenodd;stroke:none;stroke-width:1px;stroke-linecap:butt;stroke-linejoin:miter;stroke-opacity:1" />
      <path
         sodipodi:nodetypes="zscsz"
         inkscape:connector-curvature="0"
         id="path4402"
         d="m 89.21666,992.26236 c -1.502162,-0.30861 -3.399793,-2.32668 -2.499874,-5.84385 0.7423,-2.90109 6.373974,-8.17347 5.917186,-9.792 0,0 2.085225,7.55685 1.067405,10.78136 -1.149392,3.64136 -2.982495,5.16312 -4.484717,4.85449 z"
         style="fill:#478c2b;fill-opacity:1;fill-rule:evenodd;stroke:none;stroke-width:1px;stroke-linecap:butt;stroke-linejoin:miter;stroke-opacity:1" />
      <path
         style="fill:#478c2b;fill-opacity:1;fill-rule:evenodd;stroke:none;stroke-width:1px;stroke-linecap:butt;stroke-linejoin:miter;stroke-opacity:1"
         d="m 83.292124,991.36848 c 1.028801,-1.09286 1.332341,-3.79312 -1.548311,-6.13871 -2.375979,-1.93476 -10.165083,-3.0482 -10.784854,-4.61622 0,0 2.932146,7.29441 5.729344,9.33669 3.158741,2.30629 5.575149,2.51111 6.603821,1.41824 z"
         id="path4404"
         inkscape:connector-curvature="0"
         sodipodi:nodetypes="zscsz" />
      <path
         style="fill:#478c2b;fill-opacity:1;fill-rule:evenodd;stroke:none;stroke-width:1px;stroke-linecap:butt;stroke-linejoin:miter;stroke-opacity:1"
         d="m 89.7779,1003.989 c -1.340452,-0.4265 -2.871214,-2.4339 -1.698524,-5.5175 0.967299,-2.54339 6.634695,-6.74335 6.379324,-8.24828 0,0 1.148958,7.02179 -0.102142,9.82978 -1.412837,3.171 -3.238151,4.3627 -4.578658,3.936 z"
         id="path4406"
         inkscape:connector-curvature="0"
         sodipodi:nodetypes="zscsz" />
      <path
         sodipodi:nodetypes="zscsz"
         inkscape:connector-curvature="0"
         id="path4408"
         d="m 84.458877,1002.5982 c 1.048271,-0.8841 1.59499,-3.2897 -0.800433,-5.68959 -1.975754,-1.9795 -8.974948,-3.75221 -9.384144,-5.22767 0,0 1.948284,6.86856 4.297812,8.98666 2.653205,2.3919 4.838601,2.8149 5.886765,1.9306 z"
         style="fill:#478c2b;fill-opacity:1;fill-rule:evenodd;stroke:none;stroke-width:1px;stroke-linecap:butt;stroke-linejoin:miter;stroke-opacity:1" />
      <path
         sodipodi:nodetypes="zscsz"
         inkscape:connector-curvature="0"
         id="path4410"
         d="m 86.947772,1014.9553 c -1.066243,-0.7122 -1.892818,-2.8468 -0.07092,-5.2279 1.50277,-1.9639 7.554899,-4.17 7.717942,-5.5429 0,0 -0.798119,6.3952 -2.617917,8.5168 -2.055052,2.3958 -3.962866,2.9664 -5.029105,2.254 z"
         style="fill:#478c2b;fill-opacity:1;fill-rule:evenodd;stroke:none;stroke-width:1px;stroke-linecap:butt;stroke-linejoin:miter;stroke-opacity:1" />
      <path
         style="fill:#478c2b;fill-opacity:1;fill-rule:evenodd;stroke:none;stroke-width:1px;stroke-linecap:butt;stroke-linejoin:miter;stroke-opacity:1"
         d="m 82.639263,1012.3913 c 1.147018,-0.5013 2.245381,-2.4526 0.761217,-5.1486 -1.224131,-2.2238 -6.908379,-5.5478 -6.887845,-6.9344 0,0 -0.05748,6.4657 1.458897,8.9051 1.712366,2.7549 3.520756,3.6793 4.667731,3.1779 z"
         id="path4412"
         inkscape:connector-curvature="0"
         sodipodi:nodetypes="zscsz" />
      <path
         style="fill:#478c2b;fill-opacity:1;fill-rule:evenodd;stroke:none;stroke-width:1px;stroke-linecap:butt;stroke-linejoin:miter;stroke-opacity:1"
         d="m 14.914661,970.99317 c 0.890095,1.36636 3.699452,2.4465 6.997215,0.15929 2.720112,-1.88659 6.036397,-9.55973 7.884863,-9.7491 0,0 -8.612328,0.93123 -11.56244,3.21919 -3.331494,2.58373 -4.20978,5.00421 -3.319638,6.37062 z"
         id="path4438"
         inkscape:connector-curvature="0"
         sodipodi:nodetypes="zscsz" />
      <path
         sodipodi:nodetypes="zscsz"
         inkscape:connector-curvature="0"
         id="path4440"
         d="m 7.8454917,980.05468 c 1.629714,0.057 4.1283493,-1.62113 4.1521613,-5.63435 0.01963,-3.31027 -4.3532883,-10.43434 -3.4458033,-12.05581 0,0 -4.188099,7.58283 -4.011478,11.312 0.199446,4.21126 1.67534,6.3212 3.30512,6.37816 z"
         style="fill:#478c2b;fill-opacity:1;fill-rule:evenodd;stroke:none;stroke-width:1px;stroke-linecap:butt;stroke-linejoin:miter;stroke-opacity:1" />
      <path
         style="fill:#478c2b;fill-opacity:1;fill-rule:evenodd;stroke:none;stroke-width:1px;stroke-linecap:butt;stroke-linejoin:miter;stroke-opacity:1"
         d="m 13.964336,980.96445 c -0.882112,-1.3716 -0.716878,-4.37697 2.72033,-6.4487 2.835054,-1.70892 11.193387,-1.59181 12.123183,-3.20058 0,0 -4.376707,7.47558 -7.672222,9.22988 -3.721477,1.9811 -6.289319,1.791 -7.171291,0.4194 z"
         id="path4442"
         inkscape:connector-curvature="0"
         sodipodi:nodetypes="zscsz" />
      <path
         style="fill:#478c2b;fill-opacity:1;fill-rule:evenodd;stroke:none;stroke-width:1px;stroke-linecap:butt;stroke-linejoin:miter;stroke-opacity:1"
         d="m 6.2140297,992.26236 c 1.502162,-0.30861 3.399793,-2.32668 2.499874,-5.84385 -0.7423,-2.90109 -6.373974,-8.17347 -5.917186,-9.792 0,0 -2.08522497,7.55685 -1.067405,10.78136 1.149392,3.64136 2.982495,5.16312 4.484717,4.85449 z"
         id="path4444"
         inkscape:connector-curvature="0"
         sodipodi:nodetypes="zscsz" />
      <path
         sodipodi:nodetypes="zscsz"
         inkscape:connector-curvature="0"
         id="path4446"
         d="m 12.138566,991.36848 c -1.028801,-1.09286 -1.332341,-3.79312 1.548311,-6.13871 2.375979,-1.93476 10.165083,-3.0482 10.784854,-4.61622 0,0 -2.932146,7.29441 -5.729344,9.33669 -3.158741,2.30629 -5.575149,2.51111 -6.603821,1.41824 z"
         style="fill:#478c2b;fill-opacity:1;fill-rule:evenodd;stroke:none;stroke-width:1px;stroke-linecap:butt;stroke-linejoin:miter;stroke-opacity:1" />
      <path
         sodipodi:nodetypes="zscsz"
         inkscape:connector-curvature="0"
         id="path4448"
         d="m 5.6527897,1003.989 c 1.340452,-0.4265 2.871214,-2.4339 1.698524,-5.5175 -0.967299,-2.54339 -6.63469497,-6.74335 -6.37932397,-8.24828 0,0 -1.148958,7.02179 0.10214197,9.82978 1.412837,3.171 3.238151,4.3627 4.578658,3.936 z"
         style="fill:#478c2b;fill-opacity:1;fill-rule:evenodd;stroke:none;stroke-width:1px;stroke-linecap:butt;stroke-linejoin:miter;stroke-opacity:1" />
      <path
         style="fill:#478c2b;fill-opacity:1;fill-rule:evenodd;stroke:none;stroke-width:1px;stroke-linecap:butt;stroke-linejoin:miter;stroke-opacity:1"
         d="m 10.971813,1002.5982 c -1.0482713,-0.8841 -1.5949903,-3.2897 0.800433,-5.68959 1.975754,-1.9795 8.974948,-3.75221 9.384144,-5.22767 0,0 -1.948284,6.86856 -4.297812,8.98666 -2.653205,2.3919 -4.838601,2.8149 -5.886765,1.9306 z"
         id="path4450"
         inkscape:connector-curvature="0"
         sodipodi:nodetypes="zscsz" />
      <path
         style="fill:#478c2b;fill-opacity:1;fill-rule:evenodd;stroke:none;stroke-width:1px;stroke-linecap:butt;stroke-linejoin:miter;stroke-opacity:1"
         d="m 8.4829177,1014.9553 c 1.066243,-0.7122 1.8928183,-2.8468 0.07092,-5.2279 -1.50277,-1.9639 -7.55489897,-4.17 -7.71794197,-5.5429 0,0 0.79811897,6.3952 2.61791697,8.5168 2.055052,2.3958 3.962866,2.9664 5.029105,2.254 z"
         id="path4452"
         inkscape:connector-curvature="0"
         sodipodi:nodetypes="zscsz" />
      <path
         sodipodi:nodetypes="zscsz"
         inkscape:connector-curvature="0"
         id="path4454"
         d="m 12.791427,1012.3913 c -1.147018,-0.5013 -2.245381,-2.4526 -0.761217,-5.1486 1.224131,-2.2238 6.908379,-5.5478 6.887845,-6.9344 0,0 0.05748,6.4657 -1.458897,8.9051 -1.712366,2.7549 -3.520756,3.6793 -4.667731,3.1779 z"
         style="fill:#478c2b;fill-opacity:1;fill-rule:evenodd;stroke:none;stroke-width:1px;stroke-linecap:butt;stroke-linejoin:miter;stroke-opacity:1" />
    </g>
  </g>
</svg>
